<svg width="25" height="24" viewBox="0 0 25 24" fill="none" xmlns="http://www.w3.org/2000/svg">
<path d="M12.7096 0C9.47315 0 9.0698 0.0156346 7.80321 0.0692388C6.5314 0.131777 5.67112 0.32907 4.91206 0.623893C4.12918 0.930629 3.46239 1.33787 2.80379 2.00048C2.14072 2.65936 1.72993 3.32644 1.42779 4.10966C1.1331 4.86905 0.935889 5.72969 0.873378 7.00205C0.816076 8.26994 0.804169 8.67272 0.804169 11.9106C0.804169 15.1484 0.819797 15.5519 0.873378 16.8191C0.935889 18.0877 1.1331 18.9521 1.42779 19.7115C1.7344 20.4947 2.14146 21.1618 2.80379 21.8206C3.46239 22.484 4.12918 22.895 4.91206 23.1972C5.67112 23.4883 6.53512 23.6893 7.80321 23.7519C9.07055 23.8092 9.47315 23.8211 12.7096 23.8211C15.9461 23.8211 16.3494 23.8055 17.616 23.7519C18.8841 23.6893 19.7481 23.4876 20.5071 23.1972C21.29 22.8905 21.9568 22.4832 22.6154 21.8206C23.2785 21.1618 23.6893 20.4984 23.9914 19.7115C24.2824 18.9521 24.4833 18.0877 24.5458 16.8191C24.6031 15.5512 24.615 15.1484 24.615 11.9106C24.615 8.67272 24.5994 8.26919 24.5458 7.00205C24.4833 5.73342 24.2816 4.86458 23.9914 4.10966C23.6848 3.32644 23.2777 2.65936 22.6154 2.00048C21.9568 1.33713 21.2937 0.926162 20.5071 0.623893C19.7481 0.32907 18.8841 0.131777 17.616 0.0692388C16.3487 0.011912 15.9461 0 12.7096 0ZM12.7096 2.14417C15.888 2.14417 16.2675 2.1598 17.5237 2.21341C18.6824 2.26776 19.3135 2.46133 19.7325 2.62512C20.2913 2.84177 20.682 3.09788 21.1047 3.51629C21.5192 3.93098 21.7752 4.32631 21.9918 4.88543C22.1555 5.30458 22.349 5.93592 22.4033 7.09511C22.4569 8.35183 22.4725 8.73228 22.4725 11.9113C22.4725 15.0903 22.4569 15.4708 22.3989 16.7275C22.3363 17.8867 22.1429 18.518 21.9799 18.9372C21.7544 19.4963 21.5029 19.8872 21.0876 20.31C20.6686 20.7247 20.2698 20.9808 19.7153 21.1975C19.3016 21.3613 18.6616 21.5548 17.4984 21.6092C16.2355 21.6628 15.8634 21.6784 12.6769 21.6784C9.49027 21.6784 9.11892 21.6628 7.85455 21.6047C6.69586 21.5422 6.05661 21.3486 5.63763 21.1856C5.07206 20.96 4.68434 20.7083 4.26908 20.2929C3.85011 19.8738 3.58369 19.4747 3.3783 18.9201C3.2116 18.5061 3.02109 17.8658 2.95932 16.7022C2.9169 15.4536 2.89681 15.0665 2.89681 11.8934C2.89681 8.72185 2.9169 8.33397 2.95932 7.0698C3.02109 5.90614 3.2116 5.26736 3.3783 4.85193C3.58369 4.28536 3.85085 3.89822 4.26908 3.47906C4.68359 3.06437 5.07206 2.79635 5.63763 2.5864C6.05661 2.42336 6.68023 2.22979 7.84339 2.17172C9.10627 2.1263 9.47836 2.10992 12.6605 2.10992L12.7096 2.14417ZM12.7096 5.79744C9.33027 5.79744 6.59763 8.53498 6.59763 11.912C6.59763 15.2928 9.33399 18.0266 12.7096 18.0266C16.0889 18.0266 18.8216 15.2891 18.8216 11.912C18.8216 8.53126 16.0852 5.79744 12.7096 5.79744ZM12.7096 15.8825C10.5158 15.8825 8.74088 14.1068 8.74088 11.912C8.74088 9.71725 10.5158 7.94161 12.7096 7.94161C14.9035 7.94161 16.6783 9.71725 16.6783 11.912C16.6783 14.1068 14.9035 15.8825 12.7096 15.8825ZM20.4967 5.55325C20.4967 6.34465 19.853 6.98344 19.0657 6.98344C18.2746 6.98344 17.6361 6.34391 17.6361 5.55325C17.6361 4.76631 18.2791 4.12604 19.0657 4.12604C19.8523 4.12604 20.4967 4.76631 20.4967 5.55325Z" fill="currentColor"/>
</svg>
