<svg width="209" height="58" viewBox="0 0 209 58" fill="none" xmlns="http://www.w3.org/2000/svg">
<g clip-path="url(#clip0_207_2)">
<path d="M69.5344 42.9806L101.69 27.8665C101.802 27.8139 101.896 27.7308 101.963 27.6269C102.029 27.5229 102.064 27.4024 102.065 27.2793V20.4026C102.065 20.2301 101.996 20.0647 101.873 19.9427C101.75 19.8207 101.584 19.7522 101.411 19.7522H0.669974C0.496496 19.7522 0.330126 19.8207 0.207459 19.9427C0.0847917 20.0647 0.0158771 20.2301 0.0158771 20.4026V27.2414C0.0158771 27.4139 0.0847917 27.5793 0.207459 27.7013C0.330126 27.8233 0.496496 27.8918 0.669974 27.8918H31.0506C34.7973 27.8918 35.9373 32.9435 32.5525 34.5221L0.37468 49.6583C0.262735 49.7109 0.168095 49.794 0.10177 49.898C0.0354443 50.002 0.000155041 50.1225 0 50.2456V57.1002C0 57.2727 0.0689146 57.4381 0.191582 57.5601C0.314249 57.6821 0.480619 57.7506 0.654097 57.7506H101.411C101.584 57.7506 101.75 57.6821 101.873 57.5601C101.996 57.4381 102.065 57.2727 102.065 57.1002V50.2772C102.065 50.1047 101.996 49.9393 101.873 49.8173C101.75 49.6953 101.584 49.6268 101.411 49.6268H71.0331C67.2863 49.6268 66.1464 44.5719 69.5344 42.9806ZM37.201 49.1848C36.5836 49.4753 35.9091 49.6262 35.226 49.6268C31.4761 49.6268 30.3362 44.5751 33.7241 42.9775L64.6509 28.4538C65.0646 28.2494 65.5017 28.0957 65.9527 27.996C70.398 27.1151 71.9856 32.8361 68.3532 34.5506L37.201 49.1848Z" fill="#FF6500"/>
<path d="M55.919 0.536741L53.6963 3.151C53.367 3.54074 52.9558 3.8541 52.4918 4.06908C52.0277 4.28406 51.522 4.39546 51.0101 4.39546C50.4981 4.39546 49.9924 4.28406 49.5283 4.06908C49.0643 3.8541 48.6531 3.54074 48.3238 3.151L46.117 0.536741C45.975 0.368498 45.7977 0.233249 45.5974 0.140515C45.3972 0.0477808 45.179 -0.000187706 44.9581 -7.52275e-06H36.3849C36.2603 -0.000613221 36.1382 0.0343606 36.033 0.100759C35.9277 0.167158 35.8439 0.26219 35.7914 0.374568C35.7389 0.486946 35.72 0.611947 35.7368 0.734719C35.7537 0.857492 35.8056 0.972878 35.8864 1.06717L42.2369 8.60054C43.3117 9.87374 44.6537 10.8975 46.1688 11.6001C47.6838 12.3026 49.3352 12.6668 51.0069 12.6672C52.6786 12.6668 54.3299 12.3026 55.845 11.6001C57.3601 10.8975 58.7021 9.87374 59.7769 8.60054L66.1273 1.06717C66.207 0.97226 66.2578 0.856744 66.2738 0.734151C66.2898 0.611557 66.2704 0.486964 66.2177 0.374973C66.1651 0.262982 66.0814 0.168231 65.9765 0.101819C65.8717 0.0354075 65.75 8.35615e-05 65.6256 -7.52275e-06H57.0525C56.8359 0.00345926 56.6226 0.0531787 56.427 0.145785C56.2315 0.238392 56.0582 0.371726 55.919 0.536741Z" fill="#ACDB00"/>
<path d="M116.398 34.8884V31.7721C116.397 31.7393 116.404 31.7068 116.416 31.6765C116.429 31.6462 116.447 31.6186 116.471 31.5953L124.294 23.2947C124.329 23.2578 124.352 23.2117 124.361 23.1619C124.369 23.1122 124.363 23.061 124.343 23.0147C124.323 22.9684 124.289 22.929 124.247 22.9013C124.204 22.8737 124.155 22.8589 124.104 22.859H116.69C116.62 22.859 116.554 22.8318 116.504 22.7834C116.455 22.7349 116.427 22.6691 116.426 22.6001V20.0174C116.426 19.9479 116.454 19.8813 116.503 19.8321C116.553 19.783 116.62 19.7554 116.69 19.7554H128.556C128.59 19.7554 128.624 19.7622 128.656 19.7754C128.688 19.7886 128.717 19.8079 128.741 19.8323C128.765 19.8567 128.784 19.8856 128.797 19.9174C128.81 19.9492 128.816 19.9832 128.816 20.0174V22.8432C128.817 22.8758 128.811 22.9082 128.799 22.9386C128.787 22.9689 128.769 22.9966 128.746 23.02L120.77 31.5827C120.735 31.6196 120.712 31.6657 120.704 31.7155C120.695 31.7652 120.701 31.8164 120.721 31.8627C120.742 31.909 120.775 31.9484 120.817 31.9761C120.86 32.0038 120.91 32.0185 120.96 32.0184H128.467C128.536 32.0184 128.603 32.0456 128.652 32.094C128.701 32.1425 128.729 32.2083 128.73 32.2773V34.8884C128.73 34.9579 128.702 35.0246 128.653 35.0737C128.604 35.1228 128.537 35.1505 128.467 35.1505H116.661C116.591 35.1505 116.524 35.1228 116.475 35.0737C116.425 35.0246 116.398 34.9579 116.398 34.8884ZM120.255 17.8389L117.893 15.1994C117.859 15.1622 117.837 15.116 117.829 15.0665C117.821 15.0169 117.828 14.9662 117.848 14.9204C117.869 14.8746 117.902 14.8357 117.945 14.8084C117.987 14.7811 118.036 14.7667 118.087 14.7668H120.735C120.774 14.7667 120.812 14.7752 120.847 14.7916C120.882 14.8079 120.913 14.8318 120.938 14.8615L122.526 16.7559C122.551 16.7851 122.581 16.8086 122.616 16.8247C122.651 16.8409 122.689 16.8492 122.727 16.8492C122.766 16.8492 122.804 16.8409 122.839 16.8247C122.873 16.8086 122.904 16.7851 122.929 16.7559L124.485 14.8615C124.51 14.8318 124.541 14.8079 124.576 14.7916C124.611 14.7752 124.649 14.7667 124.688 14.7668H127.33C127.38 14.7675 127.43 14.7826 127.472 14.8102C127.514 14.8379 127.547 14.877 127.567 14.9229C127.588 14.9688 127.594 15.0195 127.587 15.0691C127.579 15.1186 127.557 15.1649 127.524 15.2025L125.139 17.8452C125.114 17.872 125.083 17.8935 125.049 17.9081C125.016 17.9228 124.979 17.9304 124.942 17.9304H120.452C120.415 17.9306 120.378 17.9227 120.344 17.9075C120.31 17.8922 120.28 17.8699 120.255 17.842V17.8389Z" fill="#1E1E1E"/>
<path d="M135.3 17.22C135.098 17.4237 134.857 17.5846 134.592 17.6931C134.326 17.8016 134.041 17.8555 133.753 17.8515C133.47 17.8515 133.19 17.796 132.928 17.6883C132.667 17.5806 132.429 17.4227 132.229 17.2236C132.029 17.0245 131.87 16.7882 131.762 16.5281C131.653 16.268 131.597 15.9892 131.597 15.7077C131.597 15.4261 131.653 15.1474 131.762 14.8873C131.87 14.6272 132.029 14.3908 132.229 14.1918C132.429 13.9927 132.667 13.8348 132.928 13.727C133.19 13.6193 133.47 13.5638 133.753 13.5638C134.041 13.5605 134.325 13.6148 134.591 13.7232C134.857 13.8317 135.098 13.9923 135.3 14.1953C135.502 14.3944 135.663 14.6314 135.772 14.8926C135.882 15.1538 135.939 15.4341 135.939 15.7171C135.939 16.0002 135.882 16.2805 135.772 16.5417C135.663 16.8029 135.502 17.0399 135.3 17.239V17.22ZM132.032 34.86V20.0206C132.032 19.9511 132.06 19.8844 132.11 19.8353C132.159 19.7861 132.226 19.7585 132.296 19.7585H135.125C135.194 19.7594 135.261 19.7873 135.309 19.8364C135.358 19.8854 135.385 19.9516 135.385 20.0206V34.86C135.385 34.9287 135.358 34.9945 135.309 35.0431C135.26 35.0916 135.194 35.1189 135.125 35.1189H132.296C132.261 35.1206 132.225 35.1152 132.192 35.1029C132.159 35.0907 132.129 35.0719 132.104 35.0477C132.078 35.0235 132.058 34.9943 132.044 34.9621C132.03 34.9298 132.023 34.8951 132.023 34.86H132.032Z" fill="#1E1E1E"/>
<path d="M142.38 34.9421L137.453 20.1027C137.439 20.0637 137.436 20.0222 137.442 19.9815C137.448 19.9409 137.464 19.9023 137.488 19.869C137.513 19.8357 137.544 19.8086 137.581 19.7899C137.618 19.7712 137.659 19.7616 137.7 19.7617H140.733C140.788 19.7623 140.843 19.7802 140.888 19.8131C140.933 19.8459 140.966 19.892 140.983 19.9448L144.93 32.4257C144.946 32.4789 144.979 32.5256 145.024 32.5587C145.069 32.5919 145.124 32.6098 145.179 32.6098C145.235 32.6098 145.29 32.5919 145.335 32.5587C145.38 32.5256 145.413 32.4789 145.429 32.4257L149.379 19.9448C149.396 19.892 149.429 19.8459 149.474 19.8131C149.519 19.7802 149.574 19.7623 149.63 19.7617H152.662C152.703 19.7616 152.744 19.7712 152.781 19.7899C152.818 19.8086 152.849 19.8357 152.874 19.869C152.898 19.9023 152.914 19.9409 152.92 19.9815C152.926 20.0222 152.923 20.0637 152.91 20.1027L148.01 34.9421C147.993 34.9937 147.96 35.0386 147.915 35.0703C147.871 35.1021 147.817 35.119 147.762 35.1189H142.631C142.576 35.1192 142.522 35.1024 142.477 35.0706C142.432 35.0389 142.398 34.994 142.38 34.9421Z" fill="#1E1E1E"/>
<path d="M151.649 34.9989V32.4131C151.649 32.3762 151.657 32.3398 151.673 32.3063C151.688 32.2727 151.71 32.2429 151.738 32.2186C151.766 32.1944 151.799 32.1764 151.835 32.1659C151.87 32.1553 151.908 32.1524 151.944 32.1573C153.513 32.3405 154.59 32.2268 155.177 31.8163C155.796 31.3806 156.11 30.6229 156.11 29.5399V20.0174C156.11 19.9832 156.116 19.9492 156.129 19.9174C156.142 19.8856 156.161 19.8567 156.185 19.8323C156.21 19.8079 156.238 19.7886 156.27 19.7754C156.302 19.7622 156.336 19.7554 156.371 19.7554H159.171C159.24 19.7562 159.307 19.7842 159.355 19.8332C159.404 19.8823 159.431 19.9485 159.431 20.0174V29.5399C159.431 31.8553 158.775 33.4929 157.463 34.4527C156.193 35.3852 154.329 35.6535 151.871 35.2578C151.809 35.248 151.753 35.2166 151.712 35.1691C151.671 35.1217 151.649 35.0613 151.649 34.9989ZM159.27 17.22C159.069 17.4236 158.828 17.5845 158.563 17.693C158.298 17.8015 158.013 17.8555 157.726 17.8515C157.443 17.8515 157.163 17.7961 156.901 17.6883C156.64 17.5806 156.402 17.4227 156.202 17.2236C156.002 17.0245 155.843 16.7882 155.735 16.5281C155.626 16.268 155.57 15.9892 155.57 15.7077C155.57 15.4262 155.626 15.1474 155.735 14.8873C155.843 14.6272 156.002 14.3908 156.202 14.1918C156.402 13.9927 156.64 13.8348 156.901 13.7271C157.163 13.6193 157.443 13.5639 157.726 13.5639C158.013 13.5606 158.297 13.6149 158.563 13.7234C158.828 13.8319 159.068 13.9924 159.27 14.1953C159.473 14.394 159.634 14.6308 159.744 14.8921C159.854 15.1534 159.911 15.4339 159.911 15.7172C159.911 16.0005 159.854 16.2809 159.744 16.5422C159.634 16.8035 159.473 17.0403 159.27 17.239V17.22Z" fill="#1E1E1E"/>
<path d="M169.954 35.3525C168.906 35.3713 167.864 35.1736 166.897 34.772C165.929 34.3704 165.055 33.7736 164.331 33.0193C163.587 32.2886 163 31.4161 162.604 30.4542C162.208 29.4923 162.011 28.4607 162.026 27.4213C162.015 25.917 162.44 24.4415 163.248 23.1698C164.056 21.8982 165.215 20.884 166.586 20.2477C167.956 19.6113 169.482 19.3796 170.981 19.58C172.481 19.7804 173.891 20.4045 175.044 21.3782C176.478 22.5673 177.435 24.2289 177.74 26.0605C177.916 26.8466 177.94 27.6589 177.81 28.4538C177.799 28.5143 177.766 28.5689 177.719 28.6082C177.671 28.6474 177.611 28.6688 177.549 28.6685H165.668C165.628 28.6679 165.59 28.6762 165.554 28.6929C165.519 28.7095 165.487 28.734 165.463 28.7644C165.438 28.7949 165.421 28.8306 165.413 28.8687C165.404 28.9068 165.404 28.9463 165.414 28.9842C165.616 29.9359 166.152 30.7851 166.925 31.3806C167.788 32.0522 168.859 32.4058 169.954 32.3815C170.739 32.4115 171.52 32.2691 172.243 31.9646C172.966 31.6601 173.612 31.2009 174.136 30.6197C174.167 30.5834 174.209 30.5565 174.254 30.542C174.3 30.5275 174.35 30.526 174.396 30.5376L176.895 31.1975C176.933 31.2072 176.969 31.2255 176.999 31.2508C177.029 31.2762 177.053 31.308 177.069 31.3439C177.085 31.3798 177.092 31.4188 177.091 31.458C177.089 31.4971 177.079 31.5355 177.06 31.5701C176.393 32.7094 175.415 33.6385 174.241 34.2506C172.931 34.9772 171.454 35.3567 169.954 35.3525ZM165.68 26.0763H174.146C174.186 26.0758 174.226 26.066 174.263 26.0478C174.299 26.0295 174.331 26.0032 174.355 25.9709C174.38 25.9386 174.396 25.9012 174.404 25.8614C174.412 25.8217 174.41 25.7807 174.4 25.7416C174.162 24.8609 173.654 24.076 172.945 23.4968C172.087 22.8201 171.024 22.4519 169.929 22.4519C168.834 22.4519 167.771 22.8201 166.912 23.4968C166.203 24.0725 165.689 24.8521 165.442 25.729C165.429 25.7676 165.425 25.8088 165.43 25.8493C165.436 25.8897 165.45 25.9284 165.474 25.9621C165.497 25.9959 165.527 26.0238 165.563 26.0436C165.599 26.0634 165.639 26.0746 165.68 26.0763Z" fill="#1E1E1E"/>
<path d="M189.641 34.8032C189.64 34.861 189.621 34.9171 189.585 34.9627C189.55 35.0084 189.5 35.0411 189.444 35.0557C187.143 35.6556 185.245 35.542 183.751 34.7147C182.216 33.8728 181.449 32.3552 181.449 30.1619L181.477 22.9001C181.477 22.8305 181.449 22.7639 181.4 22.7148C181.35 22.6656 181.283 22.638 181.214 22.638H178.823C178.754 22.638 178.687 22.6107 178.639 22.5622C178.59 22.5136 178.562 22.4478 178.562 22.3791V20.03C178.562 19.9611 178.59 19.8949 178.638 19.8459C178.687 19.7968 178.753 19.7688 178.823 19.768H181.217C181.251 19.7684 181.285 19.7621 181.317 19.7495C181.348 19.7369 181.377 19.7181 181.402 19.6944C181.426 19.6706 181.446 19.6423 181.459 19.6111C181.473 19.5798 181.48 19.5462 181.48 19.5122L181.506 16.2286C181.507 16.1605 181.534 16.0955 181.583 16.0476C181.632 15.9997 181.698 15.9729 181.766 15.9729H184.538C184.607 15.9729 184.674 16.0001 184.723 16.0485C184.773 16.097 184.801 16.1628 184.802 16.2318V19.4965C184.802 19.5651 184.829 19.631 184.878 19.6795C184.927 19.7281 184.993 19.7554 185.062 19.7554H189.279C189.348 19.7562 189.414 19.7842 189.463 19.8332C189.512 19.8823 189.539 19.9485 189.539 20.0174V22.3696C189.539 22.4036 189.532 22.4373 189.519 22.4687C189.506 22.5001 189.487 22.5287 189.463 22.5527C189.439 22.5767 189.41 22.5958 189.378 22.6088C189.347 22.6218 189.313 22.6285 189.279 22.6285H185.062C184.993 22.6285 184.926 22.6557 184.877 22.7042C184.827 22.7526 184.799 22.8185 184.798 22.8874L184.773 30.1493C184.773 31.0965 185.171 31.7342 185.967 32.0626C186.71 32.3699 187.823 32.3152 189.307 31.8984C189.345 31.8906 189.384 31.891 189.421 31.8996C189.458 31.9082 189.493 31.9248 189.524 31.9483C189.554 31.9717 189.578 32.0014 189.596 32.0354C189.613 32.0693 189.623 32.1066 189.625 32.1447L189.641 34.8032Z" fill="#1E1E1E"/>
<path d="M195.674 17.22C195.473 17.4234 195.232 17.5842 194.967 17.6928C194.702 17.8013 194.417 17.8553 194.13 17.8515C193.847 17.8515 193.567 17.7961 193.305 17.6883C193.044 17.5806 192.806 17.4227 192.606 17.2236C192.406 17.0245 192.247 16.7882 192.139 16.5281C192.03 16.268 191.974 15.9892 191.974 15.7077C191.974 15.4262 192.03 15.1474 192.139 14.8873C192.247 14.6272 192.406 14.3909 192.606 14.1918C192.806 13.9927 193.044 13.8348 193.305 13.7271C193.567 13.6193 193.847 13.5639 194.13 13.5639C194.417 13.561 194.701 13.6154 194.966 13.7239C195.232 13.8323 195.472 13.9927 195.674 14.1953C195.877 14.394 196.038 14.6308 196.148 14.8921C196.258 15.1534 196.315 15.4339 196.315 15.7172C196.315 16.0005 196.258 16.2809 196.148 16.5422C196.038 16.8035 195.877 17.0404 195.674 17.239V17.22ZM192.409 34.86V20.0206C192.409 19.9516 192.437 19.8855 192.485 19.8364C192.534 19.7873 192.6 19.7594 192.67 19.7585H195.499C195.569 19.7585 195.636 19.7861 195.685 19.8353C195.735 19.8844 195.762 19.9511 195.762 20.0206V34.86C195.762 34.8943 195.756 34.9282 195.742 34.9598C195.729 34.9914 195.71 35.0201 195.685 35.0442C195.661 35.0683 195.632 35.0873 195.6 35.1001C195.568 35.1129 195.533 35.1193 195.499 35.1189H192.67C192.601 35.1189 192.535 35.0916 192.486 35.0431C192.437 34.9945 192.409 34.9287 192.409 34.86Z" fill="#1E1E1E"/>
<path d="M116.398 57.5106V54.4512C116.397 54.4184 116.404 54.3859 116.416 54.3555C116.429 54.3252 116.447 54.2976 116.471 54.2744L124.383 45.9138C124.418 45.8769 124.441 45.8307 124.45 45.781C124.458 45.7312 124.452 45.68 124.432 45.6337C124.412 45.5874 124.378 45.548 124.336 45.5204C124.293 45.4927 124.244 45.478 124.193 45.4781H116.687C116.652 45.4781 116.618 45.4714 116.587 45.4583C116.555 45.4453 116.527 45.4263 116.502 45.4022C116.478 45.3782 116.459 45.3496 116.446 45.3182C116.433 45.2868 116.426 45.2532 116.426 45.2192V42.6333C116.427 42.5652 116.455 42.5001 116.504 42.4523C116.552 42.4044 116.618 42.3776 116.687 42.3776H128.559C128.627 42.3776 128.692 42.4045 128.741 42.4525C128.789 42.5004 128.816 42.5655 128.816 42.6333V45.4181C128.817 45.4507 128.811 45.4831 128.799 45.5134C128.787 45.5438 128.769 45.5715 128.746 45.5949L120.694 54.2049C120.66 54.2419 120.638 54.2878 120.63 54.337C120.622 54.3862 120.628 54.4367 120.648 54.4824C120.668 54.5281 120.701 54.5671 120.743 54.5946C120.785 54.6221 120.834 54.637 120.884 54.6374H128.483C128.517 54.6374 128.551 54.6441 128.582 54.6571C128.614 54.6702 128.642 54.6892 128.667 54.7133C128.691 54.7373 128.71 54.7659 128.723 54.7973C128.736 54.8287 128.743 54.8624 128.743 54.8964V57.5106C128.743 57.5793 128.715 57.6451 128.667 57.6937C128.618 57.7422 128.552 57.7695 128.483 57.7695H116.671C116.635 57.7712 116.6 57.7658 116.567 57.7536C116.534 57.7413 116.504 57.7225 116.478 57.6983C116.453 57.6741 116.432 57.645 116.419 57.6127C116.405 57.5804 116.398 57.5457 116.398 57.5106Z" fill="#1E1E1E"/>
<path d="M137.859 58C136.84 58.0077 135.83 57.8013 134.897 57.3943C133.963 56.9874 133.127 56.389 132.442 55.6383C130.988 54.129 130.176 52.1195 130.176 50.0293C130.176 47.9391 130.988 45.9297 132.442 44.4204C133.137 43.6808 133.979 43.0937 134.915 42.6968C135.851 42.2999 136.86 42.1019 137.878 42.1155C138.72 42.0903 139.558 42.2392 140.339 42.5528C141.12 42.8664 141.827 43.3378 142.415 43.9373C142.451 43.9742 142.497 43.9997 142.548 44.0106C142.598 44.0214 142.651 44.0171 142.699 43.9981C142.747 43.9792 142.788 43.9465 142.817 43.9041C142.847 43.8618 142.863 43.8118 142.863 43.7605V39.1634C142.863 39.1294 142.87 39.0958 142.883 39.0643C142.896 39.0329 142.915 39.0044 142.939 38.9803C142.964 38.9563 142.992 38.9372 143.024 38.9242C143.055 38.9112 143.089 38.9045 143.124 38.9045H145.956C145.99 38.9041 146.024 38.9105 146.056 38.9234C146.088 38.9362 146.117 38.9553 146.141 38.9794C146.165 39.0035 146.184 39.0322 146.197 39.0638C146.21 39.0954 146.217 39.1293 146.216 39.1634V57.4759C146.216 57.5099 146.209 57.5435 146.196 57.575C146.183 57.6064 146.164 57.6349 146.14 57.659C146.116 57.683 146.087 57.7021 146.055 57.7151C146.024 57.7281 145.99 57.7348 145.956 57.7348H143.124C143.089 57.7348 143.055 57.7281 143.024 57.7151C142.992 57.7021 142.964 57.683 142.939 57.659C142.915 57.6349 142.896 57.6064 142.883 57.575C142.87 57.5435 142.863 57.5099 142.863 57.4759V56.3456C142.864 56.2939 142.849 56.2432 142.821 56.2C142.792 56.1569 142.751 56.1234 142.703 56.1039C142.655 56.0844 142.602 56.0799 142.551 56.0909C142.5 56.1019 142.454 56.1279 142.419 56.1656C141.827 56.7678 141.117 57.2416 140.332 57.5574C139.547 57.8731 138.705 58.0238 137.859 58ZM138.151 54.9563C138.796 54.9642 139.436 54.8396 140.031 54.5902C140.625 54.3409 141.161 53.9721 141.606 53.5071C142.069 53.0598 142.436 52.5235 142.684 51.9308C142.933 51.3381 143.057 50.7014 143.05 50.0593C143.057 49.4135 142.933 48.7729 142.685 48.1761C142.437 47.5793 142.069 47.0385 141.606 46.5863C141.163 46.1199 140.629 45.7497 140.035 45.4992C139.441 45.2486 138.802 45.1232 138.157 45.1308C137.514 45.1187 136.875 45.2415 136.283 45.4911C135.69 45.7408 135.157 46.1118 134.719 46.58C133.82 47.5117 133.319 48.7527 133.319 50.0436C133.319 51.3344 133.82 52.5754 134.719 53.5071C135.157 53.9753 135.69 54.3463 136.283 54.596C136.875 54.8457 137.514 54.9685 138.157 54.9563H138.151Z" fill="#1E1E1E"/>
<path d="M149.058 57.4822V42.6428C149.059 42.5747 149.087 42.5096 149.135 42.4618C149.184 42.4139 149.25 42.3871 149.318 42.3871H152.151C152.219 42.3871 152.285 42.4139 152.334 42.4618C152.382 42.5096 152.41 42.5747 152.411 42.6428V44.0036C152.411 44.0578 152.428 44.1107 152.46 44.1545C152.493 44.1983 152.538 44.2308 152.59 44.2473C152.642 44.2638 152.698 44.2635 152.749 44.2464C152.801 44.2292 152.846 44.1962 152.878 44.152C153.348 43.5411 153.958 43.0499 154.656 42.7186C155.746 42.2331 156.957 42.0856 158.133 42.2955C158.195 42.3045 158.252 42.3352 158.293 42.3821C158.334 42.4289 158.357 42.4889 158.358 42.5512V45.5223C158.358 45.5608 158.349 45.5988 158.332 45.6334C158.314 45.668 158.29 45.6984 158.259 45.7223C158.229 45.7462 158.193 45.763 158.156 45.7716C158.118 45.7801 158.079 45.7802 158.041 45.7717C157.401 45.5805 156.727 45.5312 156.066 45.6272C155.405 45.7233 154.773 45.9623 154.215 46.3274C153.021 47.1188 152.424 48.327 152.424 49.952V57.4917C152.424 57.5257 152.417 57.5593 152.404 57.5907C152.391 57.6222 152.372 57.6507 152.347 57.6747C152.323 57.6988 152.295 57.7179 152.263 57.7309C152.231 57.7439 152.198 57.7506 152.163 57.7506H149.331C149.295 57.7524 149.259 57.7466 149.225 57.7338C149.191 57.721 149.161 57.7014 149.135 57.6761C149.109 57.6509 149.089 57.6206 149.076 57.5872C149.063 57.5539 149.057 57.5181 149.058 57.4822Z" fill="#1E1E1E"/>
<path d="M166.754 57.9716C164.313 57.9716 162.279 56.9328 160.651 54.8553C159.711 53.6537 159.157 52.1978 159.063 50.6782C158.902 48.1902 159.643 46.1043 161.286 44.4204C161.981 43.6812 162.824 43.0944 163.761 42.6975C164.697 42.3006 165.707 42.1024 166.725 42.1155C167.566 42.0856 168.403 42.2308 169.184 42.5418C169.965 42.8528 170.672 43.3228 171.259 43.9215C171.295 43.9594 171.341 43.9858 171.391 43.9974C171.442 44.009 171.495 44.0052 171.544 43.9865C171.592 43.9678 171.634 43.9351 171.664 43.8925C171.693 43.85 171.71 43.7996 171.71 43.7479V42.6333C171.71 42.5655 171.737 42.5005 171.785 42.4525C171.834 42.4045 171.899 42.3776 171.967 42.3776H174.803C174.871 42.3776 174.936 42.4045 174.985 42.4525C175.033 42.5005 175.06 42.5655 175.06 42.6333V57.4727C175.06 57.5409 175.033 57.6062 174.985 57.6547C174.937 57.7032 174.871 57.7308 174.803 57.7316H171.967C171.899 57.7308 171.833 57.7032 171.785 57.6547C171.737 57.6062 171.71 57.5409 171.71 57.4727V56.3456C171.709 56.2942 171.694 56.2442 171.664 56.2019C171.635 56.1596 171.594 56.1269 171.546 56.1079C171.498 56.089 171.445 56.0846 171.395 56.0955C171.344 56.1063 171.298 56.1318 171.262 56.1688C170.675 56.7605 169.972 57.2258 169.196 57.536C168.421 57.8461 167.589 57.9944 166.754 57.9716ZM167.071 54.9279C167.714 54.9363 168.352 54.8119 168.943 54.5624C169.535 54.3129 170.069 53.9439 170.51 53.4787C171.425 52.5615 171.939 51.3216 171.939 50.0293C171.939 48.7371 171.425 47.4972 170.51 46.58C170.062 46.1214 169.526 45.7569 168.934 45.5079C168.342 45.259 167.706 45.1307 167.063 45.1307C166.42 45.1307 165.784 45.259 165.192 45.5079C164.6 45.7569 164.064 46.1214 163.616 46.58C162.711 47.5049 162.204 48.7436 162.201 50.0341C162.198 51.3245 162.7 52.5655 163.601 53.4945C164.047 53.9607 164.587 54.329 165.185 54.5759C165.783 54.8227 166.427 54.9426 167.074 54.9279H167.071Z" fill="#1E1E1E"/>
<path d="M181.915 57.5612L176.984 42.7217C176.972 42.6829 176.969 42.6418 176.975 42.6015C176.982 42.5613 176.998 42.5232 177.022 42.4903C177.046 42.4574 177.077 42.4306 177.114 42.4121C177.15 42.3936 177.191 42.384 177.232 42.3839H180.267C180.322 42.3844 180.376 42.4021 180.42 42.4344C180.465 42.4666 180.498 42.5119 180.515 42.5639L184.465 55.0511C184.482 55.1031 184.515 55.1485 184.56 55.1806C184.604 55.2128 184.658 55.2301 184.713 55.2301C184.768 55.2301 184.821 55.2128 184.866 55.1806C184.91 55.1485 184.943 55.1031 184.96 55.0511L188.913 42.5639C188.93 42.5114 188.963 42.4656 189.007 42.4331C189.052 42.4007 189.106 42.3835 189.161 42.3839H192.197C192.238 42.384 192.278 42.3936 192.315 42.4121C192.351 42.4306 192.383 42.4574 192.407 42.4903C192.431 42.5232 192.447 42.5613 192.453 42.6015C192.46 42.6418 192.457 42.6829 192.444 42.7217L187.542 57.5612C187.525 57.6134 187.492 57.6589 187.447 57.6912C187.403 57.7236 187.349 57.7411 187.294 57.7411H182.16C182.105 57.7409 182.052 57.7233 182.008 57.6909C181.964 57.6586 181.931 57.6131 181.915 57.5612Z" fill="#1E1E1E"/>
<path d="M201.071 57.9716C200.023 57.9876 198.983 57.787 198.017 57.3827C197.05 56.9784 196.179 56.379 195.458 55.6225C193.975 54.1338 193.143 52.1231 193.143 50.0277C193.143 47.9323 193.975 45.9217 195.458 44.433C196.569 43.3313 197.984 42.5819 199.524 42.2795C201.063 41.977 202.658 42.1352 204.108 42.7339C205.557 43.3326 206.795 44.3451 207.666 45.6433C208.537 46.9415 209.001 48.4673 209 50.0277C209.015 51.0716 208.816 52.1076 208.415 53.0724C208.014 54.0371 207.419 54.9102 206.666 55.6383C205.945 56.3883 205.076 56.9826 204.113 57.384C203.151 57.7854 202.115 57.9855 201.071 57.9716ZM197.96 53.7471C198.786 54.4812 199.855 54.888 200.963 54.89C201.637 54.9019 202.306 54.7726 202.927 54.5104C203.547 54.2482 204.105 53.859 204.564 53.3682C205.327 52.5742 205.786 51.5399 205.863 50.4445C205.92 49.6727 205.799 48.8981 205.508 48.1804C205.216 47.4627 204.763 46.8212 204.183 46.3053C203.354 45.5666 202.28 45.1565 201.167 45.1528C200.496 45.1456 199.83 45.2778 199.214 45.5409C198.597 45.804 198.042 46.1924 197.585 46.681C196.816 47.477 196.353 48.5163 196.277 49.6173C196.219 50.388 196.341 51.1614 196.633 51.8776C196.925 52.5938 197.379 53.2335 197.96 53.7471Z" fill="#1E1E1E"/>
</g>
<defs>
<clipPath id="clip0_207_2">
<rect width="209" height="58" fill="white"/>
</clipPath>
</defs>
</svg>
