<svg width="22" height="24" viewBox="0 0 22 24" fill="none" xmlns="http://www.w3.org/2000/svg">
<path d="M18.4526 5.07542C18.2925 4.99264 18.1366 4.90189 17.9856 4.80351C17.5464 4.51303 17.1437 4.17076 16.7862 3.78407C15.8918 2.76019 15.5577 1.72147 15.4346 0.994222H15.4396C15.3368 0.390569 15.3793 0 15.3857 0H11.3117V15.7602C11.3117 15.9718 11.3117 16.1809 11.3028 16.3876C11.3028 16.4133 11.3003 16.437 11.2989 16.4647C11.2989 16.4761 11.2989 16.488 11.2964 16.4998V16.5087C11.2534 17.0742 11.0723 17.6205 10.7688 18.0994C10.4653 18.5784 10.0488 18.9754 9.55589 19.2556C9.04222 19.5479 8.46124 19.7013 7.87025 19.7005C5.97211 19.7005 4.43373 18.1521 4.43373 16.2398C4.43373 14.3275 5.97211 12.779 7.87025 12.779C8.22956 12.7787 8.58665 12.8353 8.92829 12.9466L8.93323 8.79671C7.89613 8.66269 6.84251 8.74515 5.83886 9.03888C4.83521 9.33262 3.9033 9.83126 3.10192 10.5034C2.39972 11.1137 1.80938 11.842 1.35747 12.6554C1.18549 12.9521 0.536635 14.144 0.458061 16.0786C0.408643 17.1766 0.73826 18.3142 0.895409 18.7844V18.7943C0.994245 19.0712 1.37723 20.0159 2.00138 20.8124C2.50467 21.4513 3.09929 22.0125 3.76609 22.478V22.4681L3.77598 22.478C5.74824 23.8188 7.93499 23.7308 7.93499 23.7308C8.31353 23.7155 9.58159 23.7308 11.0216 23.048C12.6188 22.2911 13.5281 21.1634 13.5281 21.1634C14.109 20.4896 14.5709 19.7217 14.894 18.8927C15.2627 17.9232 15.3857 16.7604 15.3857 16.2956V7.93449C15.4351 7.96415 16.0934 8.39971 16.0934 8.39971C16.0934 8.39971 17.0417 9.00782 18.5213 9.40382C19.5828 9.68563 21.0129 9.74495 21.0129 9.74495V5.69885C20.5118 5.75324 19.4943 5.59503 18.4526 5.07542Z" fill="currentColor"/>
</svg>
