<svg width="26" height="18" viewBox="0 0 26 18" fill="none" xmlns="http://www.w3.org/2000/svg">
<path d="M24.9345 2.67829C24.6395 1.63044 23.8227 0.808632 22.7706 0.518124C20.8335 2.47697e-05 13.0459 2.48949e-05 13.0459 2.48949e-05C13.0459 2.48949e-05 5.27311 -0.0124034 3.31575 0.518124C2.26912 0.809408 1.44844 1.63044 1.15651 2.67829C0.789257 4.66447 0.606797 6.67472 0.615338 8.6943C0.611456 10.7007 0.793139 12.7078 1.15651 14.6816C1.44844 15.7294 2.26912 16.5512 3.31575 16.8464C5.25293 17.3645 13.0459 17.3645 13.0459 17.3645C13.0459 17.3645 20.814 17.3645 22.7706 16.8464C23.8227 16.5512 24.6395 15.7302 24.9345 14.6816C25.2909 12.7078 25.4648 10.7007 25.4524 8.6943C25.4648 6.67472 25.2948 4.66447 24.9345 2.67829ZM10.5582 12.4126V4.95964L17.0406 8.6943L10.5582 12.4126Z" fill="#1E1E1E"/>
</svg>
