<?xml version="1.0" standalone="no"?>
<!DOCTYPE svg PUBLIC "-//W3C//DTD SVG 20010904//EN"
 "http://www.w3.org/TR/2001/REC-SVG-20010904/DTD/svg10.dtd">
<svg version="1.0" xmlns="http://www.w3.org/2000/svg"
 width="1648.000000pt" height="1648.000000pt" viewBox="0 0 1648.000000 1648.000000"
 preserveAspectRatio="xMidYMid meet">
<metadata>
Created by potrace 1.14, written by Peter Selinger 2001-2017
</metadata>
<g transform="translate(0.000000,1648.000000) scale(0.100000,-0.100000)"
fill="#000000" stroke="none">
<path d="M5760 12858 c-51 -46 -55 -107 -10 -155 11 -12 20 -27 20 -33 0 -5 4
-10 8 -10 4 0 35 -33 67 -72 61 -75 78 -94 115 -138 12 -14 38 -45 58 -69 21
-25 53 -63 72 -85 19 -22 40 -47 45 -54 6 -7 20 -23 33 -34 12 -12 22 -25 22
-29 0 -5 16 -24 35 -43 19 -20 35 -37 35 -40 0 -5 33 -45 78 -92 17 -19 32
-37 32 -41 0 -3 10 -14 22 -24 11 -11 18 -19 15 -19 -4 0 6 -12 21 -27 15 -16
72 -82 127 -148 55 -66 105 -125 110 -131 6 -6 27 -31 46 -54 79 -99 200 -220
294 -296 33 -27 65 -52 70 -57 9 -7 36 -25 90 -59 11 -7 22 -15 25 -18 18 -18
260 -139 290 -145 10 -2 31 -10 47 -18 31 -15 237 -73 293 -81 19 -3 46 -8 60
-11 118 -24 437 -24 560 0 14 3 39 7 55 9 17 2 37 7 45 10 8 3 26 7 40 10 54
9 213 58 265 81 17 7 53 23 80 36 28 12 52 23 55 23 3 1 21 11 41 24 20 12 39
22 43 22 9 0 90 54 94 63 2 4 8 7 13 7 11 0 132 89 193 141 58 50 123 116 191
194 33 38 70 80 82 92 12 13 20 23 17 23 -2 0 10 16 28 37 50 56 70 78 108
124 19 23 40 47 45 53 6 6 28 34 50 61 22 28 43 52 46 55 4 3 31 34 60 70 30
36 66 79 81 95 23 27 51 59 76 90 4 6 55 66 112 134 58 68 116 138 130 155 14
17 34 41 45 53 11 12 34 39 52 60 17 21 45 54 62 74 17 20 31 41 31 47 0 6 4
12 9 14 17 5 20 52 6 85 -28 66 3 64 -808 61 l-732 -3 -45 -30 c-25 -16 -66
-54 -90 -83 -25 -30 -52 -62 -61 -71 -8 -9 -51 -59 -94 -111 -44 -52 -82 -97
-85 -100 -3 -3 -34 -39 -70 -80 -35 -41 -69 -78 -75 -82 -5 -3 -23 -18 -40
-32 -16 -14 -36 -26 -42 -26 -7 0 -13 -5 -13 -10 0 -6 -3 -9 -7 -8 -5 1 -29
-8 -54 -20 -107 -50 -274 -59 -384 -20 -135 47 -206 103 -355 283 -103 123
-121 144 -151 176 -14 16 -36 42 -50 60 -55 72 -85 102 -128 127 l-46 27 -740
3 -740 2 -25 -22z"/>
<path d="M137 9724 c-3 -3 -21 -7 -41 -9 -20 -2 -44 -9 -52 -16 -41 -34 -41
-41 -40 -639 1 -558 2 -576 21 -602 12 -17 34 -30 55 -34 19 -4 1151 -8 2515
-9 l2480 -1 70 -23 c179 -59 307 -194 363 -383 15 -52 19 -91 17 -170 -3 -114
-22 -184 -76 -271 -31 -51 -132 -157 -149 -157 -5 0 -15 -6 -22 -12 -14 -14
-79 -47 -253 -129 -240 -112 -271 -127 -292 -133 -13 -4 -23 -12 -23 -18 0 -6
-3 -9 -6 -6 -3 3 -35 -9 -72 -26 -37 -18 -86 -41 -109 -51 -24 -11 -43 -22
-43 -25 0 -4 -6 -7 -12 -7 -7 0 -75 -30 -152 -66 -76 -37 -144 -67 -151 -67
-7 0 -15 -5 -17 -11 -2 -5 -10 -11 -18 -13 -8 -1 -26 -8 -40 -16 -14 -8 -27
-15 -30 -15 -3 0 -30 -12 -60 -27 -30 -14 -94 -44 -141 -66 -48 -23 -127 -60
-175 -83 -49 -23 -92 -41 -96 -41 -5 1 -8 -3 -8 -8 0 -6 -5 -10 -12 -10 -6 0
-41 -14 -77 -32 -36 -17 -68 -32 -71 -33 -3 -1 -50 -23 -105 -49 -55 -27 -134
-64 -175 -83 -41 -19 -109 -51 -150 -70 -41 -20 -111 -52 -155 -73 -140 -66
-247 -116 -345 -163 -157 -75 -215 -100 -222 -99 -5 1 -8 -3 -8 -8 0 -6 -7
-10 -15 -10 -8 0 -29 -9 -47 -20 -18 -11 -41 -20 -50 -20 -10 0 -18 -3 -18 -8
0 -4 -15 -13 -32 -21 -62 -26 -163 -73 -242 -112 -44 -21 -85 -39 -93 -39 -7
0 -13 -4 -13 -10 0 -5 -5 -10 -10 -10 -6 0 -67 -27 -137 -60 -69 -33 -132 -60
-139 -60 -8 0 -14 -4 -14 -9 0 -8 -37 -24 -52 -22 -5 1 -8 -4 -8 -9 0 -5 -3
-9 -7 -8 -8 1 -43 -14 -228 -103 -49 -23 -92 -43 -95 -44 -3 -1 -39 -17 -80
-37 -253 -120 -309 -147 -492 -232 -31 -14 -62 -26 -67 -26 -6 0 -11 -4 -11
-10 0 -5 -5 -10 -10 -10 -6 0 -52 -20 -103 -44 -122 -58 -191 -89 -197 -88 -3
0 -18 -10 -35 -21 -65 -46 -60 6 -60 -645 l0 -594 34 -30 c21 -19 40 -28 52
-25 10 3 21 1 24 -3 3 -5 18 -5 34 0 15 4 34 4 40 0 7 -4 30 -4 51 0 21 4 44
4 51 -1 7 -4 20 -4 29 1 9 5 22 5 29 0 8 -4 26 -4 41 0 15 4 33 4 40 0 7 -4
24 -4 39 0 14 4 35 4 45 0 11 -4 37 -4 57 0 21 4 43 3 50 -1 8 -4 18 -4 24 1
6 5 17 5 24 1 8 -5 26 -5 41 -1 15 4 33 4 40 0 7 -4 25 -4 40 0 15 4 33 4 39
0 7 -4 30 -4 51 0 21 4 44 4 51 -1 7 -4 20 -4 29 1 9 5 22 5 29 0 8 -4 26 -4
41 0 15 4 33 4 40 0 7 -4 24 -4 39 0 14 4 35 4 45 0 11 -4 37 -4 57 0 21 4 43
3 50 -1 8 -4 18 -4 24 1 6 5 17 5 24 1 8 -5 26 -5 41 -1 15 4 33 4 40 0 7 -4
25 -4 40 0 15 4 33 4 39 0 7 -4 30 -4 51 0 21 4 44 4 51 -1 7 -4 20 -4 29 1 9
5 22 5 29 0 8 -4 26 -4 41 0 15 4 33 4 40 0 7 -4 24 -4 39 0 14 4 35 4 45 0
11 -4 37 -4 57 0 21 4 43 3 50 -1 8 -4 18 -4 24 1 6 5 17 5 24 1 8 -5 26 -5
41 -1 15 4 33 4 40 0 7 -4 25 -4 40 0 15 4 33 4 39 0 7 -4 30 -4 51 0 21 4 44
4 51 -1 7 -4 20 -4 29 1 9 5 22 5 29 0 8 -4 26 -4 41 0 15 4 33 4 40 0 7 -4
24 -4 39 0 14 4 35 4 46 0 11 -4 23 -6 26 -4 7 4 51 5 126 3 28 -1 56 2 62 5
5 4 12 2 16 -4 4 -6 12 -7 18 -3 15 10 38 10 57 2 8 -4 34 -4 58 1 23 4 45 4
48 -1 2 -4 16 -4 29 1 16 6 27 6 31 -1 3 -6 10 -6 17 -1 7 5 21 6 32 2 11 -4
30 -4 43 1 14 5 22 5 22 -2 0 -6 6 -6 18 0 10 5 24 6 31 1 8 -4 27 -4 42 0 17
5 31 5 35 -1 3 -5 11 -6 17 -2 15 10 38 10 57 2 8 -4 34 -4 58 1 23 4 45 4 48
-1 2 -4 16 -4 29 1 16 6 27 6 31 -1 3 -6 10 -6 17 -1 7 5 21 6 32 2 11 -4 30
-4 43 1 14 5 22 5 22 -2 0 -6 6 -6 18 0 10 5 24 6 31 1 8 -4 27 -4 42 0 17 5
31 5 35 -1 3 -5 11 -6 17 -2 15 10 38 10 57 2 8 -4 34 -4 58 1 23 4 45 4 48
-1 2 -4 16 -4 29 1 16 6 27 6 31 -1 3 -6 10 -6 17 -1 7 5 21 6 32 2 11 -4 30
-4 43 1 14 5 22 5 22 -2 0 -6 6 -6 18 0 10 5 24 6 31 1 8 -4 27 -4 42 0 17 5
31 5 35 -1 3 -5 11 -6 17 -2 15 10 38 10 57 2 8 -4 34 -4 58 1 23 4 45 4 48
-1 2 -4 16 -4 29 1 16 6 27 6 31 -1 3 -6 10 -6 17 -1 7 5 21 6 32 2 11 -4 30
-4 43 1 14 5 22 5 22 -2 0 -6 6 -6 18 0 10 5 24 6 31 1 8 -4 27 -4 42 0 17 5
31 5 35 -1 3 -5 11 -6 17 -2 15 10 38 10 57 2 8 -4 34 -4 58 1 23 4 45 4 48
-1 2 -4 16 -4 29 1 16 6 27 6 31 -1 3 -6 10 -6 17 -1 7 5 21 6 32 2 11 -4 30
-4 43 1 14 5 22 5 22 -2 0 -6 6 -6 18 0 10 5 24 6 31 1 8 -4 27 -4 42 0 17 5
31 5 35 -1 3 -5 11 -6 17 -2 15 10 38 10 57 2 8 -4 34 -4 58 1 23 4 45 4 48
-1 2 -4 16 -4 29 1 16 6 27 6 31 -1 3 -6 10 -6 17 -1 7 5 21 6 32 2 11 -4 30
-4 43 1 14 5 22 5 22 -2 0 -6 6 -6 18 0 10 5 24 6 31 1 8 -4 27 -4 42 0 17 5
31 5 35 -1 3 -5 11 -6 17 -2 15 10 38 10 57 2 8 -4 34 -4 58 1 23 4 45 4 48
-1 2 -4 16 -4 29 1 16 6 27 6 31 -1 3 -6 10 -6 17 -1 7 5 21 6 32 2 11 -4 30
-4 43 1 14 5 22 5 22 -2 0 -6 6 -6 18 0 10 5 24 6 31 1 8 -4 27 -4 42 0 17 5
31 5 35 -1 3 -5 11 -6 17 -2 15 10 38 10 57 2 8 -4 34 -4 58 1 23 4 45 4 48
-1 2 -4 16 -4 29 1 16 6 27 6 31 -1 3 -6 10 -6 17 -1 7 5 21 6 32 2 11 -4 30
-4 43 1 14 5 22 5 22 -2 0 -6 6 -6 18 0 10 5 24 6 31 1 8 -4 27 -4 42 0 17 5
31 5 35 -1 3 -5 11 -6 17 -2 15 10 38 10 57 2 8 -4 34 -4 58 1 23 4 45 4 48
-1 2 -4 16 -4 29 1 16 6 27 6 31 -1 3 -6 10 -6 17 -1 7 5 21 6 32 2 11 -4 30
-4 43 1 14 5 22 5 22 -2 0 -6 6 -6 18 0 10 5 24 6 31 1 8 -4 27 -4 42 0 17 5
31 5 35 -1 3 -5 11 -6 17 -2 15 10 38 10 57 2 8 -4 34 -4 58 1 23 4 45 4 48
-1 2 -4 16 -4 29 1 16 6 27 6 31 -1 3 -6 10 -6 17 -1 7 5 21 6 32 2 11 -4 30
-4 43 1 14 5 22 5 22 -2 0 -6 6 -6 18 0 10 5 24 6 31 1 8 -4 27 -4 42 0 17 5
31 5 35 -1 3 -5 11 -6 17 -2 15 10 38 10 57 2 8 -4 34 -4 58 1 23 4 45 4 48
-1 2 -4 15 -4 28 1 12 4 29 5 36 0 7 -4 25 -4 40 0 15 4 33 4 40 0 7 -4 25 -4
40 0 15 4 33 4 39 0 7 -4 30 -4 51 0 21 4 44 4 51 -1 7 -4 20 -4 29 1 9 5 22
5 29 0 8 -4 26 -4 41 0 15 4 33 4 40 0 7 -4 24 -4 39 0 14 4 35 4 45 0 11 -4
37 -4 57 0 21 4 43 3 50 -1 8 -4 18 -4 24 1 6 5 17 5 24 1 8 -5 26 -5 41 -1
15 4 33 4 40 0 7 -4 25 -4 40 0 15 4 33 4 39 0 7 -4 30 -4 51 0 21 4 44 4 51
-1 7 -4 20 -4 29 1 9 5 22 5 29 0 8 -4 26 -4 41 0 15 4 33 4 40 0 7 -4 24 -4
39 0 14 4 35 4 45 0 11 -4 37 -4 57 0 21 4 43 3 50 -1 8 -4 18 -4 24 1 6 5 17
5 24 1 8 -5 26 -5 41 -1 15 4 33 4 40 0 7 -4 25 -4 40 0 15 4 33 4 39 0 7 -4
30 -4 51 0 21 4 44 4 51 -1 7 -4 20 -4 29 1 9 5 22 5 29 0 8 -4 26 -4 41 0 15
4 33 4 40 0 7 -4 24 -4 39 0 14 4 35 4 45 0 11 -4 37 -4 57 0 21 4 43 3 50 -1
8 -4 18 -4 24 1 6 5 17 5 24 1 8 -5 26 -5 41 -1 15 4 33 4 40 0 7 -4 25 -4 40
0 15 4 33 4 39 0 7 -4 30 -4 51 0 21 4 44 4 51 -1 7 -4 20 -4 29 1 9 5 22 5
29 0 8 -4 26 -4 41 0 15 4 33 4 40 0 7 -4 24 -4 39 0 14 4 35 4 45 0 11 -4 37
-4 57 0 21 4 43 3 50 -1 8 -4 18 -4 24 1 6 5 17 5 24 1 8 -5 26 -5 41 -1 15 4
33 4 40 0 7 -4 25 -4 40 0 15 4 33 4 39 0 7 -4 30 -4 51 0 21 4 44 4 51 -1 7
-4 20 -4 29 1 9 5 22 5 29 0 8 -4 26 -4 41 0 15 4 33 4 40 0 7 -4 24 -4 39 0
14 4 35 4 45 0 11 -4 37 -4 57 0 21 4 43 3 50 -1 8 -4 18 -4 24 1 6 5 17 5 24
1 8 -5 26 -5 41 -1 15 4 33 4 40 0 7 -4 25 -4 40 0 15 4 33 4 39 0 7 -4 30 -4
51 0 21 4 44 4 51 -1 7 -4 20 -4 29 1 9 5 22 5 29 0 8 -4 26 -4 41 0 15 4 33
4 40 0 7 -4 24 -4 39 0 14 4 35 4 45 0 11 -4 37 -4 57 0 21 4 43 3 50 -1 8 -4
18 -4 24 1 6 5 17 5 24 1 8 -5 26 -5 41 -1 15 4 33 4 40 0 7 -4 25 -4 40 0 15
4 33 4 39 0 7 -4 30 -4 51 0 21 4 44 4 51 -1 7 -4 20 -4 29 1 9 5 22 5 29 0 8
-4 26 -4 41 0 15 4 33 4 40 0 7 -4 24 -4 39 0 14 4 35 4 45 0 11 -4 37 -4 57
0 21 4 43 3 50 -1 8 -4 18 -4 24 1 6 5 17 5 24 1 8 -5 26 -5 41 -1 15 4 33 4
40 0 7 -4 25 -4 40 0 15 4 33 4 39 0 7 -4 30 -4 51 0 21 4 44 4 51 -1 7 -4 20
-4 29 1 9 5 22 5 29 0 8 -4 26 -4 41 0 15 4 33 4 40 0 7 -4 24 -4 39 0 14 4
35 4 46 0 11 -4 23 -6 26 -4 7 4 51 5 126 3 28 -1 56 2 62 5 5 4 12 2 16 -4 4
-6 12 -7 18 -3 15 10 38 10 57 2 8 -4 34 -4 58 1 23 4 45 4 48 -1 2 -4 16 -4
29 1 16 6 27 6 31 -1 3 -6 10 -6 17 -1 7 5 21 6 32 2 11 -4 30 -4 43 1 14 5
22 5 22 -2 0 -6 6 -6 18 0 10 5 24 6 31 1 8 -4 27 -4 42 0 17 5 31 5 35 -1 3
-5 11 -6 17 -2 15 10 38 10 57 2 8 -4 34 -4 58 1 23 4 45 4 48 -1 2 -4 16 -4
29 1 16 6 27 6 31 -1 3 -6 10 -6 17 -1 7 5 21 6 32 2 11 -4 30 -4 43 1 14 5
22 5 22 -2 0 -6 6 -6 18 0 10 5 24 6 31 1 8 -4 27 -4 42 0 17 5 31 5 35 -1 3
-5 11 -6 17 -2 15 10 38 10 57 2 8 -4 34 -4 58 1 23 4 45 4 48 -1 2 -4 16 -4
29 1 16 6 27 6 31 -1 3 -6 10 -6 17 -1 7 5 21 6 32 2 11 -4 30 -4 43 1 14 5
22 5 22 -2 0 -6 6 -6 18 0 10 5 24 6 31 1 8 -4 27 -4 42 0 17 5 31 5 35 -1 3
-5 11 -6 17 -2 15 10 38 10 57 2 8 -4 34 -4 58 1 23 4 45 4 48 -1 2 -4 16 -4
29 1 16 6 27 6 31 -1 3 -6 10 -6 17 -1 7 5 21 6 32 2 11 -4 30 -4 43 1 14 5
22 5 22 -2 0 -6 6 -6 18 0 10 5 24 6 31 1 8 -4 27 -4 42 0 17 5 31 5 35 -1 3
-5 11 -6 17 -2 15 10 38 10 57 2 8 -4 34 -4 58 1 23 4 45 4 48 -1 2 -4 16 -4
29 1 16 6 27 6 31 -1 3 -6 10 -6 17 -1 7 5 21 6 32 2 11 -4 30 -4 43 1 14 5
22 5 22 -2 0 -6 6 -6 18 0 10 5 24 6 31 1 8 -4 27 -4 42 0 17 5 31 5 35 -1 3
-5 11 -6 17 -2 15 10 38 10 57 2 8 -4 34 -4 58 1 23 4 45 4 48 -1 2 -4 16 -4
29 1 16 6 27 6 31 -1 3 -6 10 -6 17 -1 7 5 21 6 32 2 11 -4 30 -4 43 1 14 5
22 5 22 -2 0 -6 6 -6 18 0 10 5 24 6 31 1 8 -4 27 -4 42 0 17 5 31 5 35 -1 3
-5 11 -6 17 -2 15 10 38 10 57 2 8 -4 34 -4 58 1 23 4 45 4 48 -1 2 -4 16 -4
29 1 16 6 27 6 31 -1 3 -6 10 -6 17 -1 7 5 21 6 32 2 11 -4 30 -4 43 1 14 5
22 5 22 -2 0 -6 6 -6 18 0 10 6 24 6 32 1 8 -5 17 -7 20 -5 4 2 19 6 35 9 16
3 40 17 54 31 25 25 26 30 31 183 3 86 3 181 0 210 -3 30 -3 55 0 57 3 2 3 56
0 120 -3 64 -4 118 -2 120 2 2 3 114 2 249 -1 254 -6 290 -42 301 -10 4 -18
10 -18 15 0 7 -4504 17 -4720 11 -117 -3 -281 3 -315 13 -85 22 -162 57 -205
91 -111 90 -187 211 -213 340 -39 192 14 370 148 507 35 36 109 88 124 88 6 0
11 5 11 10 0 6 4 10 9 10 11 0 100 41 299 136 74 35 135 64 137 64 2 0 65 30
142 66 76 37 143 67 150 67 7 0 10 4 7 9 -3 4 1 8 7 8 13 0 170 70 179 80 3 3
10 6 15 7 6 1 71 31 145 66 74 35 196 92 270 127 74 34 140 66 146 71 6 5 14
6 17 2 4 -3 7 -2 7 3 0 10 69 40 83 36 4 -1 7 1 7 6 0 4 15 13 33 20 17 8 48
22 68 33 20 10 39 16 43 12 3 -3 6 -2 6 4 0 9 25 22 70 38 3 1 50 23 105 49
114 55 201 96 330 156 50 23 124 58 165 78 41 20 77 36 80 37 3 1 50 23 105
49 205 98 266 126 275 126 6 0 10 5 10 12 0 6 3 9 6 5 3 -3 31 7 63 23 108 55
236 114 244 112 4 -1 7 3 7 8 0 5 3 9 8 8 10 -2 34 9 207 92 83 39 166 78 185
87 19 8 42 19 50 24 8 5 22 12 30 15 8 4 40 18 70 33 30 14 60 26 68 27 8 2
22 10 31 18 10 9 22 16 28 16 5 0 43 17 84 37 41 20 76 37 79 38 10 2 167 76
202 95 20 11 44 20 52 20 9 0 16 5 16 10 0 6 5 10 10 10 6 0 68 28 138 61 70
34 133 62 140 62 6 0 12 4 12 9 0 4 4 8 9 8 5 0 53 21 107 46 55 26 151 71
214 101 63 30 141 66 172 81 57 27 95 70 84 97 -3 8 -2 16 2 19 4 2 5 111 2
241 -3 130 -3 238 0 240 3 2 3 150 0 330 l-5 327 -33 29 c-26 23 -41 29 -65
26 -18 -2 -40 0 -49 5 -11 5 -18 5 -18 -1 0 -6 -9 -7 -22 -2 -12 4 -36 5 -53
1 -17 -4 -39 -5 -50 -3 -11 2 -26 4 -32 4 -7 -1 -21 -1 -30 -1 -10 0 -31 0
-48 -1 -16 -1 -39 -1 -50 0 -11 0 -47 0 -80 0 -33 0 -67 0 -75 1 -8 0 -24 0
-35 0 -11 -1 -27 -1 -35 0 -8 0 -28 0 -45 -1 -16 -1 -39 -1 -50 0 -11 0 -45 0
-75 0 -30 0 -75 0 -100 1 -85 0 -105 0 -125 -4 -11 -2 -28 1 -37 6 -12 5 -18
5 -18 -1 0 -6 -9 -7 -22 -2 -12 4 -36 5 -53 1 -17 -4 -39 -5 -50 -3 -11 3 -29
4 -40 3 -11 -1 -29 -1 -40 -1 -11 0 -45 0 -75 0 -30 0 -62 0 -70 1 -8 0 -28 0
-45 -1 -16 -1 -39 -1 -50 0 -11 0 -45 0 -75 0 -30 0 -62 0 -70 1 -8 0 -28 0
-45 -1 -16 -1 -38 -1 -47 0 -28 2 -59 2 -103 1 -22 0 -53 -1 -70 0 -16 0 -39
-2 -50 -4 -11 -2 -28 1 -37 6 -12 6 -18 5 -18 -2 0 -6 -5 -8 -12 -4 -11 7 -55
7 -93 0 -11 -2 -28 1 -37 6 -12 6 -18 5 -18 -2 0 -6 -5 -8 -12 -4 -11 7 -55 7
-93 0 -11 -2 -28 1 -37 6 -12 5 -18 5 -18 -1 0 -6 -9 -7 -22 -2 -12 4 -36 5
-53 1 -17 -4 -39 -5 -50 -3 -11 3 -29 4 -40 3 -11 -1 -29 -1 -40 -1 -11 0 -45
0 -75 0 -30 0 -62 0 -70 1 -8 0 -28 0 -45 -1 -16 -1 -39 -1 -50 0 -11 0 -45 0
-75 0 -30 0 -62 0 -70 1 -8 0 -28 0 -45 -1 -16 -1 -38 -1 -47 0 -28 2 -59 2
-103 1 -22 0 -53 -1 -70 0 -16 0 -39 -2 -50 -4 -11 -2 -28 1 -37 6 -12 5 -18
5 -18 -1 0 -6 -9 -7 -22 -2 -12 4 -36 5 -53 1 -17 -4 -39 -5 -50 -3 -11 3 -29
4 -40 3 -11 -1 -29 -1 -40 -1 -11 0 -45 0 -75 0 -30 0 -62 0 -70 1 -8 0 -28 0
-45 -1 -16 -1 -39 -1 -50 0 -11 0 -45 0 -75 0 -30 0 -62 0 -70 1 -8 0 -28 0
-45 -1 -16 -1 -38 -1 -47 0 -31 2 -61 2 -118 1 -77 -1 -172 -1 -190 0 -8 0
-28 0 -45 -1 -16 -1 -39 -1 -50 0 -11 0 -45 0 -75 0 -30 0 -62 0 -70 1 -8 0
-28 0 -45 -1 -16 -1 -38 -1 -47 0 -39 2 -136 2 -193 0 -16 -1 -39 -1 -50 0
-11 0 -47 0 -80 0 -33 0 -67 0 -75 1 -8 0 -24 0 -35 0 -11 -1 -27 -1 -35 0 -8
0 -28 0 -45 -1 -16 -1 -39 -1 -50 0 -11 0 -45 0 -75 0 -30 0 -75 0 -100 1 -85
0 -105 0 -125 -4 -11 -2 -28 1 -37 6 -12 5 -18 5 -18 -1 0 -6 -9 -7 -22 -2
-12 4 -36 5 -53 1 -17 -4 -39 -5 -50 -3 -11 3 -29 4 -40 3 -11 -1 -29 -1 -40
-1 -11 0 -45 0 -75 0 -30 0 -62 0 -70 1 -8 0 -28 0 -45 -1 -16 -1 -39 -1 -50
0 -11 0 -45 0 -75 0 -30 0 -62 0 -70 1 -8 0 -28 0 -45 -1 -16 -1 -38 -1 -47 0
-28 2 -59 2 -103 1 -22 0 -53 -1 -70 0 -16 0 -39 -2 -50 -4 -11 -2 -28 1 -37
6 -12 5 -18 5 -18 -1 0 -6 -9 -7 -22 -2 -12 4 -36 5 -53 1 -17 -4 -39 -5 -50
-3 -11 2 -26 4 -32 4 -7 -1 -21 -1 -30 -1 -10 0 -31 0 -48 -1 -16 -1 -39 -1
-50 0 -11 0 -47 0 -80 0 -33 0 -67 0 -75 1 -8 0 -24 0 -35 0 -11 -1 -27 -1
-35 0 -8 0 -28 0 -45 -1 -16 -1 -38 -1 -47 -1 -35 2 -104 3 -178 2 -175 -1
-196 -1 -210 0 -8 0 -28 0 -45 -1 -16 -1 -39 -1 -50 0 -11 0 -45 0 -75 0 -30
0 -62 0 -70 1 -8 0 -28 0 -45 -1 -16 -1 -38 -1 -47 0 -31 2 -61 2 -118 1 -77
-1 -172 -1 -190 0 -8 0 -28 0 -45 -1 -16 -1 -39 -1 -50 0 -11 0 -45 0 -75 0
-30 0 -62 0 -70 1 -8 0 -28 0 -45 -1 -16 -1 -38 -1 -47 0 -28 2 -59 2 -103 1
-22 0 -53 -1 -70 0 -16 0 -39 -2 -50 -4 -11 -2 -28 1 -37 6 -12 5 -18 5 -18
-1 0 -6 -9 -7 -22 -2 -12 4 -36 5 -53 1 -17 -4 -39 -5 -50 -3 -11 3 -29 4 -40
3 -11 -1 -29 -1 -40 -1 -11 0 -45 0 -75 0 -30 0 -62 0 -70 1 -8 0 -28 0 -45
-1 -16 -1 -39 -1 -50 0 -11 0 -45 0 -75 0 -30 0 -62 0 -70 1 -8 0 -28 0 -45
-1 -16 -1 -38 -1 -47 0 -28 2 -59 2 -103 1 -22 0 -53 -1 -70 0 -16 0 -39 -2
-50 -4 -11 -2 -28 1 -37 6 -12 6 -18 5 -18 -2 0 -6 -5 -8 -12 -4 -11 7 -55 7
-93 0 -11 -2 -28 1 -37 6 -12 6 -18 5 -18 -2 0 -6 -5 -8 -12 -4 -11 7 -55 7
-93 0 -11 -2 -28 1 -37 6 -12 5 -18 5 -18 -1 0 -6 -9 -7 -22 -2 -12 4 -36 5
-53 1 -17 -4 -39 -5 -50 -3 -11 3 -29 4 -40 3 -11 -1 -29 -1 -40 -1 -11 0 -45
0 -75 0 -30 0 -62 0 -70 1 -8 0 -28 0 -45 -1 -16 -1 -39 -1 -50 0 -11 0 -45 0
-75 0 -30 0 -62 0 -70 1 -8 0 -28 0 -45 -1 -16 -1 -38 -1 -47 0 -28 2 -59 2
-103 1 -22 0 -53 -1 -70 0 -16 0 -39 -2 -50 -4 -11 -2 -28 1 -37 6 -12 5 -18
5 -18 -1 0 -6 -9 -7 -22 -2 -12 4 -36 5 -53 1 -17 -4 -39 -5 -50 -3 -11 2 -26
4 -32 4 -7 -1 -21 -1 -30 -1 -10 0 -31 0 -48 -1 -16 -1 -39 -1 -50 0 -11 0
-47 0 -80 0 -33 0 -67 0 -75 1 -8 0 -24 0 -35 0 -11 -1 -27 -1 -35 0 -8 0 -28
0 -45 -1 -16 -1 -39 -1 -50 0 -11 0 -45 0 -75 0 -30 0 -75 0 -100 1 -85 0
-105 0 -125 -4 -11 -2 -28 1 -37 6 -12 5 -18 5 -18 -1 0 -6 -9 -7 -22 -2 -12
4 -36 5 -53 1 -17 -4 -39 -5 -50 -3 -11 3 -29 4 -40 3 -11 -1 -29 -1 -40 -1
-11 0 -45 0 -75 0 -30 0 -62 0 -70 1 -8 0 -28 0 -45 -1 -16 -1 -39 -1 -50 0
-11 0 -45 0 -75 0 -30 0 -62 0 -70 1 -8 0 -28 0 -45 -1 -16 -1 -38 -1 -47 0
-28 2 -59 2 -103 1 -22 0 -53 -1 -70 0 -16 0 -39 -2 -50 -4 -11 -2 -28 1 -37
6 -12 5 -18 5 -18 -1 0 -6 -9 -7 -22 -2 -12 4 -36 5 -53 1 -17 -4 -39 -5 -50
-3 -11 2 -26 4 -32 4 -7 -1 -21 -1 -30 -1 -10 0 -31 0 -48 -1 -16 -1 -39 -1
-50 0 -11 0 -47 0 -80 0 -33 0 -67 0 -75 1 -8 0 -24 0 -35 0 -11 -1 -27 -1
-35 0 -8 0 -28 0 -45 -1 -16 -1 -38 -1 -47 -1 -52 3 -224 3 -273 1 -16 -1 -39
-1 -50 0 -11 0 -47 0 -80 0 -33 0 -67 0 -75 1 -8 0 -24 0 -35 0 -11 -1 -27 -1
-35 0 -8 0 -28 0 -45 -1 -16 -1 -39 -1 -50 0 -11 0 -45 0 -75 0 -30 0 -75 0
-100 1 -85 0 -105 0 -125 -4 -11 -2 -28 1 -37 6 -12 5 -18 5 -18 -1 0 -6 -9
-7 -22 -2 -12 4 -36 5 -53 1 -17 -4 -39 -5 -50 -3 -11 3 -29 4 -40 3 -11 -1
-29 -1 -40 -1 -11 0 -45 0 -75 0 -30 0 -62 0 -70 1 -8 0 -28 0 -45 -1 -16 -1
-39 -1 -50 0 -11 0 -45 0 -75 0 -30 0 -62 0 -70 1 -8 0 -28 0 -45 -1 -16 -1
-38 -1 -47 0 -28 2 -59 2 -103 1 -22 0 -53 -1 -70 0 -16 0 -39 -2 -50 -4 -11
-2 -28 1 -37 6 -12 5 -18 5 -18 -1 0 -6 -9 -7 -22 -2 -12 4 -36 5 -53 1 -17
-4 -39 -5 -50 -3 -11 2 -26 4 -32 4 -7 -1 -21 -1 -30 -1 -10 0 -31 0 -48 -1
-16 -1 -39 -1 -50 0 -11 0 -47 0 -80 0 -33 0 -67 0 -75 1 -8 0 -24 0 -35 0
-11 -1 -27 -1 -35 0 -8 0 -28 0 -45 -1 -46 -2 -58 -2 -82 4 -11 3 -23 3 -26 1z
m10671 -1319 c12 -3 34 -8 49 -11 15 -3 33 -10 40 -16 7 -6 13 -8 13 -4 0 11
72 -30 127 -71 59 -44 122 -118 152 -177 59 -119 83 -283 56 -386 -7 -28 -13
-51 -14 -53 -1 -16 -50 -127 -64 -145 -41 -52 -135 -136 -187 -166 -34 -20
-63 -36 -65 -36 -3 0 -58 -25 -122 -57 -65 -31 -122 -57 -128 -59 -5 -1 -75
-33 -155 -72 -80 -38 -167 -79 -195 -92 -27 -12 -95 -44 -150 -70 -55 -27
-129 -62 -165 -78 -36 -17 -113 -53 -172 -81 -58 -28 -135 -63 -170 -80 -34
-16 -117 -54 -183 -86 -185 -88 -250 -119 -255 -120 -3 0 -36 -16 -75 -34
-367 -174 -403 -191 -415 -191 -5 0 -10 -4 -10 -10 0 -5 -6 -10 -13 -10 -7 0
-35 -11 -63 -24 -55 -28 -239 -114 -329 -156 -33 -15 -103 -48 -155 -73 -52
-24 -120 -56 -150 -70 -30 -14 -122 -57 -203 -96 -82 -39 -150 -71 -153 -71
-2 0 -44 -20 -94 -44 -49 -25 -90 -42 -90 -39 0 3 -8 -1 -17 -9 -10 -9 -29
-19 -43 -23 -14 -4 -33 -15 -44 -24 -10 -9 -21 -15 -25 -13 -8 4 -105 -41
-109 -50 -2 -5 -8 -8 -13 -8 -11 0 -66 -24 -184 -81 -44 -22 -85 -39 -92 -39
-6 0 -13 -4 -15 -8 -1 -4 -32 -21 -68 -36 -36 -16 -110 -50 -165 -77 -55 -26
-110 -50 -122 -54 -13 -3 -23 -11 -23 -16 0 -5 -6 -9 -12 -9 -7 0 -55 -20
-106 -45 -52 -25 -100 -45 -107 -45 -7 0 -18 -7 -25 -15 -7 -8 -21 -15 -31
-15 -9 0 -24 -7 -33 -15 -8 -8 -17 -15 -21 -15 -6 0 -54 -22 -195 -88 -41 -20
-77 -36 -80 -36 -3 -1 -9 -4 -15 -7 -12 -8 -102 -37 -136 -45 -13 -3 -69 -8
-125 -10 -201 -8 -352 61 -482 221 -23 27 -80 148 -86 180 -3 17 -9 41 -12 55
-6 26 -7 179 -1 217 2 13 6 26 10 29 4 4 7 15 7 23 0 21 57 137 78 161 9 10
33 35 52 55 33 35 159 125 176 125 4 0 49 20 101 45 51 25 97 45 103 45 5 0
10 4 10 10 0 5 3 9 8 8 4 -2 32 9 62 24 61 29 199 94 294 138 107 49 259 121
309 146 27 13 54 24 60 24 6 0 18 6 26 13 9 7 45 26 81 42 36 15 115 51 175
80 152 72 245 116 350 165 128 60 231 108 295 139 30 14 57 26 60 27 3 0 50
23 105 49 55 27 102 49 105 50 7 2 115 53 248 117 235 112 309 145 326 146 5
0 12 4 15 9 8 11 152 79 159 75 2 -2 8 0 11 5 8 11 63 37 74 35 4 -1 7 2 7 8
0 5 6 10 13 10 7 0 39 13 72 30 33 16 66 30 73 30 6 0 12 5 12 10 0 6 6 10 14
10 8 0 38 12 68 27 29 15 55 28 58 28 3 1 41 18 85 39 44 21 118 56 165 78 47
22 117 55 155 73 39 18 80 36 93 40 12 3 22 11 22 16 0 5 3 8 8 7 7 -2 41 14
220 98 51 24 125 59 165 78 39 18 112 52 160 75 49 22 92 41 98 41 5 0 9 5 9
10 0 6 6 10 13 10 7 0 33 10 58 22 24 12 47 21 52 20 4 -1 7 2 7 8 0 6 6 10
13 10 6 0 55 21 107 46 191 92 306 143 325 147 11 1 25 5 30 9 11 7 111 26
160 31 34 3 129 -2 163 -8z"/>
</g>
</svg>
